DataType=double
version=3
OpenSimVersion=4.3
inDegrees=no
endheader
time	ground_thorax_rot_x	ground_thorax_rot_y	ground_thorax_rot_z	ground_thorax_tx	ground_thorax_ty	ground_thorax_tz	clav_prot	clav_elev	scapula_abduction	scapula_elevation	scapula_upward_rot	scapula_winging	shoulder_elv	plane_of_elev	axial_rot	elbow_flexion	pro_sup
13.33024	-0.0728221982515017	0.007017905051679191	-0.1562563850572881	-0.6578819283511316	0.2505592984776829	0.3832880158241497	-0.2719311047367848	-0.1260151971367072	0.04189713627478442	-0.3020416118099854	0.78539816339	0.3164514912423607	0.893969969253063	0.3628538480618396	-0.3050870960917252	0.6244422126281199	1.543071625565679
13.34119	-0.07167609288662979	0.006359940424112445	-0.1585965094598696	-0.6598553580753044	0.2500385360237528	0.3824531487837058	-0.270810566671745	-0.1256179042811565	0.04097472016928488	-0.301353945945931	0.7828613774171796	0.3170404900243776	0.8908539402371144	0.3609201951347007	-0.3046083126535968	0.6236562358712304	1.543194319706713
13.35214	-0.07123350164963216	0.006303028903140162	-0.1572696803025177	-0.6585206000529521	0.250269357551429	0.3821878069152443	-0.2719470203310193	-0.1233312397024953	0.04076535661066934	-0.2999294143142968	0.78539816339	0.3150531244026482	0.873152369439306	0.3540111753942769	-0.301390573458968	0.6323035913654094	1.544097609550009
13.3631	-0.07101904482250773	0.007059304914659043	-0.1557673722648784	-0.6571154722114014	0.2504299002702862	0.3819017252154731	-0.2719619362036829	-0.1212418456185213	0.03986340624423744	-0.2983114838311003	0.78539816339	0.3139104779346683	0.8593607029204275	0.3465928715948832	-0.3010968955929295	0.6391865186223863	1.545316323367736
13.37305	-0.06855128443871879	0.005761592646951838	-0.1589157562187455	-0.6597058733467555	0.2498456592924373	0.3800986316130153	-0.2718597485080722	-0.1210278344412628	0.04009109453867202	-0.2981475319006869	0.78539816339	0.313904093496901	0.8520363197211803	0.3437171585546988	-0.3002811261740793	0.6400285934328072	1.545763233943544
13.38201	-0.06799105593963684	0.003964613229420397	-0.1600085031915942	-0.660491433602758	0.2496296077727213	0.3799914253437344	-0.2714585226430382	-0.1198671409846141	0.04031296023359438	-0.2972104939568666	0.78539816339	0.3131374285504089	0.8399620884852669	0.3398267700581363	-0.2981396472105227	0.6434248439353375	1.546379986537763
13.39098	-0.06642522212131068	0.003857865258710098	-0.1603006488530993	-0.6606389953701566	0.2494778903348641	0.3787134495554779	-0.27134007932904	-0.1184651992049866	0.04002443924109847	-0.2960984652718123	0.78539816339	0.3124162351066517	0.82768155883206	0.334006184306478	-0.2960003090098186	0.6465697268037942	1.547051541501738
13.40293	-0.06699055234328889	0.004875076149092631	-0.1582012761173953	-0.6586555509506337	0.2496676149922232	0.3790104619457038	-0.2713959776820827	-0.1158867395327325	0.03881073107997828	-0.2940735858680353	0.78539816339	0.311000936406048	0.8110608513288681	0.3246854987282245	-0.2936901408206173	0.6546107334459665	1.548396574301888
13.41289	-0.06463276731099668	0.003220119505177098	-0.1617711155602609	-0.6616056971119231	0.2489973374538151	0.3773870743263771	-0.2711685148097592	-0.1156395888329877	0.03918496394477247	-0.2938614144161614	0.78539816339	0.3109092685502784	0.8016335239738336	0.3211553398509152	-0.2917311615295168	0.6561922651765396	1.54901821391532
13.42085	-0.06421552552577009	0.002068715713775424	-0.1621208363395593	-0.6617142051488878	0.2488395027982611	0.3772784872399594	-0.2709366927502903	-0.1139174713865591	0.03896639234214522	-0.2925099606042078	0.78539816339	0.3098309482509492	0.7867505403267124	0.3150183691558975	-0.2880916884317394	0.6604525456746624	1.549947305347334
13.43081	-0.06179273241349599	0.002777255706180533	-0.1625135850613962	-0.6619146249224069	0.2485899014333153	0.3751723222425022	-0.2710246180865561	-0.1122297932433699	0.03812595584985749	-0.2911766886948235	0.78539816339	0.3090247192838749	0.7732260213504686	0.3073451269137981	-0.2858878284500736	0.6647218332761566	1.550727734651916
13.44077	-0.06196887495622343	0.004371444828646721	-0.1614076159862831	-0.6608039813949785	0.2485413310337539	0.3751619269517081	-0.271142128847226	-0.1091411394138582	0.03665900535159207	-0.2888210050131854	0.78539816339	0.3075427226184132	0.7555513693398257	0.2971290695022204	-0.284118280557343	0.6733078248469128	1.552383445189458
13.45172	-0.06032052696087997	0.003268558508875534	-0.1645617411582329	-0.663350542940032	0.2478982609816787	0.3740511901688053	-0.2708734999983728	-0.1079590025475949	0.0367045742952353	-0.28786855265157	0.78539816339	0.3068145966752296	0.7429343191822074	0.2914952310499185	-0.2819678009073908	0.6761789470035593	1.553344776305712
13.46068	-0.05834134794325278	0.001681880717575128	-0.1636030598270591	-0.6622681211562648	0.2478692780857658	0.3727263374099239	-0.2705774135526179	-0.1064325316692543	0.03640286815898259	-0.2866117131868685	0.78539816339	0.3060570263316338	0.7249544433720461	0.2836038841181097	-0.2777701587450844	0.6820198076614742	1.554431182914928
13.47164	-0.05647627007867026	0.00142004481617781	-0.1679076446265683	-0.6659653589744137	0.2470091957378418	0.3712588013602121	-0.268101637893549	-0.1060635896984271	0.0351821303697856	-0.2855184605412902	0.780406077677299	0.306401615144293	0.7187606238139586	0.2799669955798648	-0.2765960655170629	0.6806552430538126	1.554686207575083
13.48259	-0.05480001301442231	0.004738791237101937	-0.165957832914254	-0.6639919046357429	0.2470604341095807	0.3694261452214463	-0.2708815958438069	-0.102753403789382	0.03446643082399255	-0.2837956154621028	0.78539816339	0.3043245205011478	0.6945904094934009	0.2633894387574461	-0.2699834394710295	0.6916634006895959	1.557330587509946
13.49255	-0.0536569348141458	0.001018715103018146	-0.1684156676500619	-0.6659133871055086	0.2465369970762986	0.369124729055143	-0.2682242477575522	-0.1026907493403524	0.03406523924381532	-0.2829635135111721	0.7808303706027521	0.304687176861939	0.6826795262807269	0.2600147153532706	-0.2675658504715689	0.69327003639092	1.557991861870945
13.49952	-0.05153468771412706	0.0004574137337387059	-0.1726939075441653	-0.6695984765037811	0.2456681607909871	0.3674801957298362	-0.2652801117149793	-0.1024353669670781	0.03259782954611533	-0.2817681677015413	0.7748861860460239	0.3051737878078088	0.6757002458524658	0.25593767617046	-0.266070259621492	0.6918563979293325	1.558293338163719
13.50947	-0.05013907069134402	0.002811886008305019	-0.1689740160848049	-0.6661950897460219	0.2459713391446386	0.365959799551407	-0.2640118072713107	-0.1009557891936159	0.02874559561260125	-0.2798457116229321	0.7701958726316975	0.3051996235266892	0.6582070637793579	0.2423437885613402	-0.2574417790381436	0.7019395282691107	1.560481771816521
13.52043	-0.0478742239040749	0.001620606402472017	-0.1737879891536393	-0.6703467232387041	0.245024311737655	0.364320080286925	-0.260712418095165	-0.1009426046890883	0.02732849668202701	-0.2786943514093339	0.7637351580742574	0.3058595170617067	0.6508362663583502	0.2385436584769171	-0.2559733247209852	0.7004627307746659	1.560746898653058
13.53138	-0.0484462755980566	-0.000831120673720615	-0.171117012847943	-0.6678403237874498	0.2452671382492106	0.3652634322452425	-0.2562023341871861	-0.1012780133276006	0.0241317552061673	-0.2771787803674288	0.7537427701355568	0.3071517440607852	0.636153718272841	0.230892058272632	-0.2485245154139575	0.7058429612931515	1.561892174803268
13.54034	-0.04659859539450854	-0.001197558016765509	-0.17140368335837	-0.6679834930244292	0.245036348982983	0.3638187657070993	-0.2523649129021105	-0.1022070557117265	0.02096785948833745	-0.2762384391285008	0.7446802647239052	0.3087855170388841	0.6258780425141329	0.2227237382437408	-0.2424586432215755	0.7083112241672156	1.563108220164194
13.54931	-0.04374626154656915	-0.002384267524866762	-0.1764626160658408	-0.6722903037668685	0.2440352301340804	0.3616956742833054	-0.2489205718825482	-0.1022658309084779	0.01919968631246434	-0.2749767519119586	0.7375062138165084	0.3096152357225841	0.6183040881210612	0.2180704639814788	-0.2407464373343456	0.7065242762265667	1.56340023313423
13.56026	-0.04361678269722741	-0.002975608496694687	-0.1725296303407478	-0.668718783311989	0.2444562919750155	0.3617164383045972	-0.2436643534771456	-0.1039192334800611	0.01470699486815737	-0.2738515521402813	0.7247941072645619	0.3120807611393497	0.6060813685505949	0.2074531337666519	-0.2294816499040752	0.7107417611173616	1.564799329721849
13.57121	-0.04057997136402628	-0.004201555934104605	-0.1778082176561805	-0.6731985710027685	0.2434195837605226	0.3594111929202605	-0.2400869347960583	-0.1040519984838362	0.01278081314238768	-0.2724867975711873	0.7172847075885159	0.3130335313876649	0.5984045967765296	0.20244519469706	-0.2277835005209829	0.7087996769753213	1.565099975216305
13.58117	-0.04059352531439756	-0.003993739883208786	-0.1732116756379229	-0.6690634029064326	0.2439661460410741	0.3594344219163885	-0.2343588858770072	-0.106927165998867	0.006801388169711479	-0.271745080121681	0.7020483414080672	0.3165559046456973	0.5875582516707939	0.1899785921786526	-0.2170470533660163	0.7141946273874881	1.566491950516437
13.59113	-0.04176807704345099	-0.002907972560205793	-0.1758456727832797	-0.6711934614457444	0.2441244146241318	0.3601817821572219	-0.2272508984773985	-0.1212731563825834	-0.002738337071069021	-0.2780287637836117	0.6772493915216382	0.3270453492474049	0.5929133534150929	0.1785310189963304	-0.2081950001886272	0.721733313044991	1.57079633
13.60108	-0.04069593092498824	-0.004498601140168503	-0.1747939649039111	-0.6702458713205003	0.2439373499115752	0.3596311471293064	-0.2204662622823848	-0.1214665053455551	-0.006825205837435146	-0.2750060578687477	0.6624888665387036	0.329148904869805	0.5843722290808702	0.1712972546233508	-0.2046370324828947	0.7190133625847526	1.57079633
13.61104	-0.04338856553664677	-0.006879082060352863	-0.1745541614463972	-0.6702955850413131	0.2445780628093215	0.3620964544372774	-0.2033363475217454	-0.1392651331435322	-0.02098567190466075	-0.2786142664938221	0.6151867255072447	0.3447596394427396	0.6084986491972304	0.1681279527776751	-0.1951253773135054	0.7199753981325973	1.57079633
